<svg width="80" height="80" fill="none" xmlns="http://www.w3.org/2000/svg"><mask id="a" style="mask-type:luminance" maskUnits="userSpaceOnUse" x="0" y="0" width="80" height="80"><path d="M80 0H0v80h80V0z" fill="#fff"/></mask><g mask="url(#a)"><path d="M46.336 68.44V42.056C53.712 39.464 59 32.448 59 24.2c0-10.464-8.52-18.96-19-18.96S21 13.744 21 24.2c0 8.248 5.288 15.264 12.664 17.856v1.104l-6.336 6.32 6.336 6.32-6.336 6.32L40.12 74.76l6.208-6.32h.008zM30.496 24.2c0-5.216 4.272-9.48 9.504-9.48 5.232 0 9.504 4.264 9.504 9.48S45.232 33.68 40 33.68c-5.232 0-9.504-4.264-9.504-9.48z" stroke="#2177B7" stroke-width="3" stroke-linecap="round" stroke-linejoin="round"/></g></svg>