<svg width="80" height="80" fill="none" xmlns="http://www.w3.org/2000/svg"><mask id="a" style="mask-type:luminance" maskUnits="userSpaceOnUse" x="0" y="0" width="80" height="80"><path d="M80 0H0v80h80V0z" fill="#fff"/></mask><g mask="url(#a)"><path d="M39.989 4.328c-13.84 0-25.032 11.16-25.032 24.96 0 18.728 25.032 46.376 25.032 46.376s25.04-27.648 25.04-46.376c0-13.808-11.2-24.96-25.04-24.96zm-8.944 24.96c0-4.928 4.008-8.912 8.944-8.912 4.936 0 8.944 3.992 8.944 8.912 0 4.92-4.008 8.92-8.944 8.92-4.936 0-8.944-4-8.944-8.92z" stroke="#2177B7" stroke-width="3" stroke-linecap="round" stroke-linejoin="round"/></g></svg>