<svg width="80" height="80" fill="none" xmlns="http://www.w3.org/2000/svg"><mask id="a" style="mask-type:luminance" maskUnits="userSpaceOnUse" x="0" y="0" width="80" height="80"><path d="M80 0H0v80h80V0z" fill="#fff"/></mask><g mask="url(#a)"><path d="M40.27 5.896c-19.313 0-34.856 16.072-34.048 35.56C6.958 59.12 21.39 73.472 39.053 74.08 58.47 74.752 74.406 59.224 74.406 40c0-19.224-15.28-34.104-34.145-34.104h.008zM53.46 54.84L35.517 44.072V23.744a2.904 2.904 0 115.808 0V41.16l14.992 8.904a2.782 2.782 0 01.953 3.84 2.778 2.778 0 01-3.809.936z" stroke="#2177B7" stroke-width="3" stroke-linecap="round" stroke-linejoin="round"/></g></svg>